<?xml version="1.0" standalone="no"?>
<svg
  width="600"
  height="600"
  viewBox="0 0 600 600"
  xmlns="http://www.w3.org/2000/svg"
>
  <g transform="translate(300,300)">
    <path d="M124.2,-170.6C160.9,-144.2,190.8,-107.9,188.6,-71.5C186.4,-35,152.2,1.6,142.1,50.4C132.1,99.2,146.3,160,126.6,154.3C107,148.6,53.5,76.3,20,48.8C-13.5,21.3,-27,38.5,-44.9,43.7C-62.9,48.9,-85.2,41.9,-124.7,17.5C-164.2,-6.8,-221,-48.5,-218.1,-75.1C-215.3,-101.7,-152.9,-113.1,-106.6,-136.4C-60.3,-159.7,-30.2,-194.9,6.8,-204.2C43.7,-213.5,87.4,-196.9,124.2,-170.6Z" fill="#7bdcb5" />
  </g>
</svg>
  